<svg width="800" height="800" viewBox="0 0 800 800" fill="none" xmlns="http://www.w3.org/2000/svg">
<path d="M733.333 200C733.333 255.228 688.563 300 633.333 300C578.103 300 533.333 255.228 533.333 200C533.333 144.772 578.103 100 633.333 100C688.563 100 733.333 144.772 733.333 200Z" fill="#D4A94F"/>
<path fill-rule="evenodd" clip-rule="evenodd" d="M466.667 166.667H333.333C207.625 166.667 144.771 166.667 105.719 205.719C66.6665 244.772 66.6665 307.626 66.6665 433.334C66.6665 559.04 66.6665 621.897 105.719 660.947C144.771 700 207.625 700 333.333 700H466.667C592.373 700 655.23 700 694.28 660.947C733.333 621.897 733.333 559.04 733.333 433.334C733.333 384.887 733.333 345.777 731.096 313.767C704.843 336.35 670.683 350 633.333 350C617.376 350 602.003 347.51 587.58 342.894L542.79 380.22C513.243 404.84 489.296 424.797 468.16 438.39C446.143 452.55 424.703 461.497 400 461.497C375.296 461.497 353.857 452.55 331.839 438.39C310.704 424.797 286.757 404.84 257.212 380.22L183.995 319.206C173.388 310.367 171.955 294.603 180.794 283.996C189.633 273.389 205.398 271.956 216.005 280.795L287.968 340.764C319.066 366.68 340.656 384.614 358.886 396.337C376.53 407.687 388.496 411.497 400 411.497C411.503 411.497 423.47 407.687 441.113 396.337C459.343 384.614 480.933 366.68 512.033 340.764L540.013 317.445C505.476 289.965 483.333 247.568 483.333 200C483.333 188.546 484.616 177.392 487.05 166.674C480.443 166.667 473.653 166.667 466.667 166.667Z" fill="#CC4B4B"/>
</svg>
